# xmcd
#
# Track frame offsets:
# 182
# 7810
# 19130
# 30790
# 42675
# 50902
# 59990
# 72897
# 84512
# 92045
# 106102
# 116590
# 126102
# 137972
# 149712
# 158920
#
# Disc length: 2283 seconds
#
#
# Revision: 0
# Processed by: cddbd v1.5.1PL0 Copyright (c) Steve Scherf et al.
# Submitted via: FreeRIP 2.70 
#
DISCID=e408e910
DTITLE=Smiley Bates - Pickin' On The Flat Top
DYEAR=1900
DGENRE=Bluegrass
TTITLE0=In The Mood
TTITLE1=Charlie's Boogie
TTITLE2=My Wildwood Flower
TTITLE3=Twentieth Century
TTITLE4=Wawa Special
TTITLE5=Fast Fingers
TTITLE6=Cotton Candy
TTITLE7=I'm Strollin' Home
TTITLE8=Flat Top Chimes
TTITLE9=The Last Sunrise
TTITLE10=Ye Olde Grandfather Clock
TTITLE11=John Hardy
TTITLE12=Crying Guitar
TTITLE13=Jimmy Brown
TTITLE14=Vanessa Delane
TTITLE15=Mountain Boogie
EXTD=
EXTT0=
EXTT1=
EXTT2=
EXTT3=
EXTT4=
EXTT5=
EXTT6=
EXTT7=
EXTT8=
EXTT9=
EXTT10=
EXTT11=
EXTT12=
EXTT13=
EXTT14=
EXTT15=
PLAYORDER=
